<svg width="327" height="337" viewBox="0 0 327 337" fill="none" xmlns="http://www.w3.org/2000/svg">
<g clip-path="url(#clip0_900_178)">
<g opacity="0.1">
<path d="M300.32 92.68C300.32 92.68 242.9 9.97 171.13 1.19C107.81 -6.56 49.04 23.72 40.86 89.19C37.95 112.5 32.75 138.29 23.54 159.57C13.2 183.42 -4.46 203.28 9.07 249.13C22.6 294.98 79.64 336.39 121.13 336.29C162.62 336.19 201.58 298.49 233.72 264.2C265.86 229.91 368.25 197.64 300.32 92.68Z" fill="#183267"/>
</g>
<g opacity="0.3">
<path d="M69.91 115.79H16.26L16.81 105.43H70.45L69.91 115.79Z" stroke="black" stroke-width="0.71" stroke-linecap="round" stroke-linejoin="round"/>
<path d="M69.91 130.29H16.26L16.81 119.93H70.45L69.91 130.29Z" stroke="black" stroke-width="0.71" stroke-linecap="round" stroke-linejoin="round"/>
<path d="M69.91 144.79H16.26L16.81 134.43H70.45L69.91 144.79Z" stroke="black" stroke-width="0.71" stroke-linecap="round" stroke-linejoin="round"/>
<path d="M69.91 159.29H16.26L16.81 148.93H70.45L69.91 159.29Z" stroke="black" stroke-width="0.71" stroke-linecap="round" stroke-linejoin="round"/>
<path d="M69.91 173.79H16.26L16.81 163.43H70.45L69.91 173.79Z" stroke="black" stroke-width="0.71" stroke-linecap="round" stroke-linejoin="round"/>
<path d="M69.91 188.28H16.26L16.81 177.93H70.45L69.91 188.28Z" stroke="black" stroke-width="0.71" stroke-linecap="round" stroke-linejoin="round"/>
<path d="M69.91 202.78H16.26L16.81 192.43H70.45L69.91 202.78Z" stroke="black" stroke-width="0.71" stroke-linecap="round" stroke-linejoin="round"/>
<path d="M69.91 217.28H16.26L16.81 206.93H70.45L69.91 217.28Z" stroke="black" stroke-width="0.71" stroke-linecap="round" stroke-linejoin="round"/>
<path d="M69.91 231.78H16.26L16.81 221.43H70.45L69.91 231.78Z" stroke="black" stroke-width="0.71" stroke-linecap="round" stroke-linejoin="round"/>
<path d="M69.91 246.28H16.26L16.81 235.93H70.45L69.91 246.28Z" stroke="black" stroke-width="0.71" stroke-linecap="round" stroke-linejoin="round"/>
<path d="M69.91 260.78H16.26L16.81 250.43H70.45L69.91 260.78Z" stroke="black" stroke-width="0.71" stroke-linecap="round" stroke-linejoin="round"/>
<path d="M126.63 115.79H72.98L73.53 105.43H127.17L126.63 115.79Z" stroke="black" stroke-width="0.71" stroke-linecap="round" stroke-linejoin="round"/>
<path d="M126.63 130.29H72.98L73.53 119.93H127.17L126.63 130.29Z" stroke="black" stroke-width="0.71" stroke-linecap="round" stroke-linejoin="round"/>
<path d="M126.63 144.79H72.98L73.53 134.43H127.17L126.63 144.79Z" stroke="black" stroke-width="0.71" stroke-linecap="round" stroke-linejoin="round"/>
<path d="M126.63 159.29H72.98L73.53 148.93H127.17L126.63 159.29Z" stroke="black" stroke-width="0.71" stroke-linecap="round" stroke-linejoin="round"/>
<path d="M126.63 173.79H72.98L73.53 163.43H127.17L126.63 173.79Z" stroke="black" stroke-width="0.71" stroke-linecap="round" stroke-linejoin="round"/>
<path d="M126.63 188.28H72.98L73.53 177.93H127.17L126.63 188.28Z" stroke="black" stroke-width="0.71" stroke-linecap="round" stroke-linejoin="round"/>
<path d="M126.63 202.78H72.98L73.53 192.43H127.17L126.63 202.78Z" stroke="black" stroke-width="0.71" stroke-linecap="round" stroke-linejoin="round"/>
<path d="M126.63 217.28H72.98L73.53 206.93H127.17L126.63 217.28Z" stroke="black" stroke-width="0.71" stroke-linecap="round" stroke-linejoin="round"/>
<path d="M126.63 231.78H72.98L73.53 221.43H127.17L126.63 231.78Z" stroke="black" stroke-width="0.71" stroke-linecap="round" stroke-linejoin="round"/>
<path d="M126.63 246.28H72.98L73.53 235.93H127.17L126.63 246.28Z" stroke="black" stroke-width="0.71" stroke-linecap="round" stroke-linejoin="round"/>
<path d="M126.63 260.78H72.98L73.53 250.43H127.17L126.63 260.78Z" stroke="black" stroke-width="0.71" stroke-linecap="round" stroke-linejoin="round"/>
</g>
<g opacity="0.3">
<path d="M291.57 126.5H222.33V178.89H291.57V126.5Z" stroke="black" stroke-width="0.71" stroke-linecap="round" stroke-linejoin="round"/>
<path d="M287.82 130.83H226.09V174.56H287.82V130.83Z" stroke="black" stroke-width="0.71" stroke-linecap="round" stroke-linejoin="round"/>
<path d="M246.21 137.73H267.68" stroke="black" stroke-width="0.71" stroke-linecap="round" stroke-linejoin="round"/>
<path d="M232.31 144.07H281.59" stroke="black" stroke-width="0.71" stroke-linecap="round" stroke-linejoin="round"/>
<path d="M243.29 156.76H270.61" stroke="black" stroke-width="0.71" stroke-linecap="round" stroke-linejoin="round"/>
<path d="M232.8 169.44H243.53" stroke="black" stroke-width="0.71" stroke-linecap="round" stroke-linejoin="round"/>
<path d="M270.37 169.44H281.1" stroke="black" stroke-width="0.71" stroke-linecap="round" stroke-linejoin="round"/>
</g>
<g opacity="0.3">
<path d="M310.38 189.94H259.41V228.5H310.38V189.94Z" stroke="black" stroke-width="0.71" stroke-linecap="round" stroke-linejoin="round"/>
<path d="M307.61 193.12H262.18V225.31H307.61V193.12Z" stroke="black" stroke-width="0.71" stroke-linecap="round" stroke-linejoin="round"/>
<path d="M276.99 198.2H292.8" stroke="black" stroke-width="0.71" stroke-linecap="round" stroke-linejoin="round"/>
<path d="M266.76 202.87H303.03" stroke="black" stroke-width="0.71" stroke-linecap="round" stroke-linejoin="round"/>
<path d="M274.84 212.2H294.95" stroke="black" stroke-width="0.71" stroke-linecap="round" stroke-linejoin="round"/>
<path d="M267.12 221.54H275.02" stroke="black" stroke-width="0.71" stroke-linecap="round" stroke-linejoin="round"/>
<path d="M294.77 221.54H302.67" stroke="black" stroke-width="0.71" stroke-linecap="round" stroke-linejoin="round"/>
</g>
<path d="M251.33 217.07L177.33 214.5C174.283 214.393 171.233 214.393 168.18 214.5L99.27 217.06L102.27 120.29C102.39 116.62 102.38 112.95 102.27 109.29L99.27 17.99H251.27L251.33 217.07Z" fill="#1A2E35" stroke="#1A2E35" stroke-width="0.71" stroke-linecap="round" stroke-linejoin="round"/>
<path d="M253.78 14.57H101.73V213.65H253.78V14.57Z" fill="white" stroke="#1A2E35" stroke-width="0.71" stroke-linecap="round" stroke-linejoin="round"/>
<path d="M243.67 68.82H111.84V202.27H243.67V68.82Z" fill="white" stroke="#1A2E35" stroke-width="0.71" stroke-linecap="round" stroke-linejoin="round"/>
<path d="M113.07 48.92V24.52H120.24C121.482 24.4637 122.717 24.7472 123.81 25.34C124.717 25.8861 125.42 26.7154 125.81 27.7C126.27 28.8955 126.49 30.1695 126.46 31.45C126.52 32.7791 126.238 34.1015 125.64 35.29C125.137 36.2292 124.339 36.9775 123.37 37.42C122.28 37.8818 121.104 38.1068 119.92 38.08H117.51V48.92H113.07ZM117.53 34.92H119.22C119.865 34.9495 120.509 34.8297 121.1 34.57C121.323 34.4564 121.521 34.2985 121.68 34.1059C121.84 33.9133 121.959 33.6901 122.03 33.45C122.224 32.7811 122.311 32.086 122.29 31.39C122.304 30.6681 122.237 29.9469 122.09 29.24C122.042 28.9898 121.942 28.7522 121.797 28.5423C121.653 28.3323 121.467 28.1545 121.25 28.02C120.627 27.7221 119.939 27.5879 119.25 27.63H117.56L117.53 34.92Z" fill="#C21735"/>
<path d="M118.49 60.66L123.4 47.66L118.64 36.22H122.8L125.96 43.78L128.73 36.22H132.59L127.9 48.55L132.96 60.66H128.8L125.34 52.46L122.34 60.66H118.49Z" fill="#C21735"/>
<path d="M186.88 32H243.24" stroke="#1A2E35" stroke-width="0.71" stroke-linecap="round" stroke-linejoin="round"/>
<path d="M186.88 44.17H243.24" stroke="#1A2E35" stroke-width="0.71" stroke-linecap="round" stroke-linejoin="round"/>
<path d="M199.04 38.9H243.24" stroke="#1A2E35" stroke-width="0.71" stroke-linecap="round" stroke-linejoin="round"/>
<path d="M199.04 49.84H243.24" stroke="#1A2E35" stroke-width="0.71" stroke-linecap="round" stroke-linejoin="round"/>
<path d="M116.33 83.5H160.52" stroke="#1A2E35" stroke-width="0.71" stroke-linecap="round" stroke-linejoin="round"/>
<path d="M116.33 95.04H160.52" stroke="#1A2E35" stroke-width="0.71" stroke-linecap="round" stroke-linejoin="round"/>
<path d="M116.33 89.46H183.23" stroke="#1A2E35" stroke-width="0.71" stroke-linecap="round" stroke-linejoin="round"/>
<path d="M116.33 109.1H160.52" stroke="#1A2E35" stroke-width="0.71" stroke-linecap="round" stroke-linejoin="round"/>
<path d="M116.33 120.64H160.52" stroke="#1A2E35" stroke-width="0.71" stroke-linecap="round" stroke-linejoin="round"/>
<path d="M116.33 115.06H183.23" stroke="#1A2E35" stroke-width="0.71" stroke-linecap="round" stroke-linejoin="round"/>
<path d="M115.38 195.08H157.28" stroke="#1A2E35" stroke-width="0.71" stroke-linecap="round" stroke-linejoin="round"/>
<path d="M194.83 195.08H236.73" stroke="#1A2E35" stroke-width="0.71" stroke-linecap="round" stroke-linejoin="round"/>
<path d="M121.29 149.09C118.791 150.683 116.819 152.98 115.624 155.692C114.43 158.404 114.065 161.409 114.576 164.329C115.088 167.248 116.453 169.95 118.498 172.094C120.544 174.238 123.179 175.729 126.071 176.377C128.963 177.025 131.982 176.802 134.747 175.736C137.513 174.669 139.9 172.808 141.608 170.386C143.317 167.965 144.269 165.091 144.346 162.129C144.423 159.166 143.621 156.247 142.04 153.74C140.986 152.069 139.613 150.622 137.998 149.483C136.383 148.344 134.559 147.535 132.631 147.103C130.703 146.671 128.709 146.624 126.762 146.965C124.816 147.306 122.956 148.028 121.29 149.09ZM135.68 171.81C133.699 173.065 131.39 173.704 129.045 173.647C126.7 173.59 124.425 172.839 122.507 171.489C120.589 170.139 119.114 168.25 118.27 166.062C117.425 163.874 117.248 161.485 117.761 159.196C118.274 156.908 119.454 154.823 121.152 153.205C122.85 151.587 124.99 150.508 127.301 150.106C129.611 149.704 131.989 149.996 134.134 150.946C136.279 151.895 138.094 153.459 139.35 155.44C140.184 156.756 140.751 158.223 141.018 159.758C141.285 161.293 141.247 162.865 140.906 164.385C140.566 165.906 139.929 167.344 139.032 168.618C138.135 169.892 136.996 170.976 135.68 171.81Z" fill="#C21735"/>
<path d="M134.908 156.885L122.128 164.983L123.434 167.044L136.214 158.946L134.908 156.885Z" fill="#C21735"/>
<path d="M122.09 190.34C122.09 190.34 122.29 195.1 128.5 186.61C134.71 178.12 133.89 178.74 132.23 183.5C130.966 186.806 129.285 189.938 127.23 192.82C127.23 192.82 134.69 181.02 134.69 184.33C134.69 187.64 127.69 201.72 129.1 200.48C130.51 199.24 135.1 193.03 135.1 193.03C135.1 193.03 134.48 197.17 136.1 195.31C137.72 193.45 139.62 189.71 139.41 191.78C139.2 193.85 136.51 196.34 139.2 193.86C141.89 191.38 143.97 188.26 143.34 190.54C142.71 192.82 141.07 193.65 142.72 192.82C144.37 191.99 153.72 176.46 150.8 178.32C147.88 180.18 142.52 196.32 145 195.1C147.48 193.88 150.39 187.64 150.18 190.75C149.97 193.86 150.8 193.86 151.63 192.82" stroke="#1A2E35" stroke-width="0.71" stroke-linecap="round" stroke-linejoin="round"/>
<path d="M326.59 321.32H0.360001" stroke="#1A2E35" stroke-width="0.71" stroke-linecap="round" stroke-linejoin="round"/>
<path d="M326.59 328.15H0.360001" stroke="#1A2E35" stroke-width="0.71" stroke-linecap="round" stroke-linejoin="round"/>
<path d="M308.71 245.97H239.54C238.447 245.968 237.391 246.361 236.564 247.075C235.738 247.79 235.196 248.779 235.04 249.86L224.7 320.62H306.96L313.24 250.92C313.295 250.291 313.22 249.658 313.017 249.06C312.815 248.463 312.49 247.914 312.064 247.448C311.638 246.983 311.12 246.611 310.543 246.356C309.965 246.102 309.341 245.97 308.71 245.97Z" fill="#1A2E35" stroke="#1A2E35" stroke-width="0.71" stroke-linecap="round" stroke-linejoin="round"/>
<path d="M215.07 234.42C215.07 234.42 196.36 243.71 189.93 246.28C183.5 248.85 181.93 249.99 181.36 251.56C180.79 253.13 155.79 292.41 152.9 295.98C150.01 299.55 143.9 307.27 144.76 312.55C145.62 317.83 152.47 322.41 159.04 322.27C165.61 322.13 169.76 320.84 170.47 318.98C171.18 317.12 189.33 284.7 189.33 284.7L195.04 320.84H268.04C268.04 320.84 273.75 271.42 273.75 264.13C273.75 256.84 275.18 248.28 272.18 246.42C269.18 244.56 256.76 240.28 247.61 237.28C238.46 234.28 235.61 233.71 233.47 233.71C231.33 233.71 215.07 234.42 215.07 234.42Z" fill="white" stroke="#1A2E35" stroke-width="0.71" stroke-linecap="round" stroke-linejoin="round"/>
<path d="M213.07 234.71C213.07 234.71 210.64 239.28 210.5 242.99C210.36 246.7 209.78 253.56 207.64 257.7C205.5 261.84 203.93 264.13 205.07 263.7C206.21 263.27 212.78 255.99 213.5 254.42C214.22 252.85 215.35 255.85 215.35 255.85C215.35 255.85 213.21 261.99 212.92 262.85C212.63 263.71 221.92 275.56 221.92 275.56C221.92 275.56 229.92 269.27 231.78 267.85C233.64 266.43 233.06 265.27 233.21 263.42C233.337 261.275 233.92 259.182 234.92 257.28C235.92 255.7 238.78 261.85 240.78 264.7C242.78 267.55 244.78 268.56 244.49 266.42C244.2 264.28 243.21 260.13 242.49 252.85C241.77 245.57 241.92 236.85 240.06 234.14C238.2 231.43 228.46 230.88 222.06 230.42C220.311 230.226 218.542 230.525 216.953 231.283C215.365 232.041 214.02 233.228 213.07 234.71Z" fill="white" stroke="#1A2E35" stroke-width="0.71" stroke-linecap="round" stroke-linejoin="round"/>
<path d="M184.22 259L189.36 284.7L182.72 267.61" stroke="#1A2E35" stroke-width="0.71" stroke-linecap="round" stroke-linejoin="round"/>
<path d="M213.78 241.56C213.78 241.56 215.78 252.7 217.64 261.27C218.654 266.145 220.079 270.926 221.9 275.56C221.9 275.56 231.33 259.7 234.04 251.42C235.585 246.851 236.782 242.17 237.62 237.42H213.78V241.56Z" stroke="#1A2E35" stroke-width="0.71" stroke-linecap="round" stroke-linejoin="round"/>
<path d="M224.21 245.42L219.07 251.85L222.64 258.7L219.12 267.22C219.892 270.051 220.827 272.836 221.92 275.56C221.92 275.56 224.86 270.61 227.92 264.8L225.34 258.85L228.48 251.7L224.21 245.42Z" fill="#C21735" stroke="#1A2E35" stroke-width="0.71" stroke-linecap="round" stroke-linejoin="round"/>
<path d="M213.78 237.42V241.56C213.78 241.56 215.16 249.25 216.69 256.77L223.92 249.13L231.54 257.58C232.499 255.577 233.34 253.52 234.06 251.42C235.605 246.851 236.802 242.17 237.64 237.42H213.78Z" fill="white" stroke="#1A2E35" stroke-width="0.71" stroke-linecap="round" stroke-linejoin="round"/>
<path d="M151.51 300.21C151.51 300.21 164.85 295.34 172.05 307.21" stroke="#1A2E35" stroke-width="0.71" stroke-linecap="round" stroke-linejoin="round"/>
<path d="M172.28 303.54C172.28 303.54 164.82 305.23 160.83 311.54C156.84 317.85 164.94 318.6 167.18 318.6C169.42 318.6 171.53 317.1 171.65 316.32C171.77 315.54 174.7 308.01 174.59 306.25C174.57 305.603 174.33 304.982 173.91 304.49C173.49 303.997 172.916 303.662 172.28 303.54Z" fill="white" stroke="#1A2E35" stroke-width="0.71" stroke-linecap="round" stroke-linejoin="round"/>
<path d="M168.9 306.17C168.9 306.17 164.78 309.76 165.06 311.17C165.34 312.58 171.45 318.1 172.63 317.31C172.843 317.201 173.032 317.051 173.187 316.869C173.342 316.687 173.459 316.476 173.532 316.249C173.606 316.021 173.634 315.781 173.614 315.543C173.595 315.305 173.529 315.073 173.42 314.86C173.03 314.33 168.9 306.17 168.9 306.17Z" fill="white" stroke="#1A2E35" stroke-width="0.71" stroke-linecap="round" stroke-linejoin="round"/>
<path d="M165.01 311.16C165.01 311.16 162.58 313.74 163.37 314.92C164.16 316.1 169.71 319.1 171.15 318.2C172.59 317.3 171.65 316.36 171.65 316.36L165.01 311.16Z" fill="white" stroke="#1A2E35" stroke-width="0.71" stroke-linecap="round" stroke-linejoin="round"/>
<path d="M179.22 306.03L174.26 305.17L175.43 312.31L180.49 312.47L179.22 306.03Z" fill="white" stroke="#1A2E35" stroke-width="0.71" stroke-linecap="round" stroke-linejoin="round"/>
<path d="M170.29 294.81L176.1 315.16L178.92 317.73V314.11L172.78 294.11C172.729 293.944 172.645 293.79 172.533 293.657C172.422 293.524 172.284 293.415 172.129 293.336C171.974 293.258 171.805 293.212 171.631 293.2C171.458 293.189 171.284 293.213 171.12 293.27C170.815 293.377 170.561 293.595 170.407 293.88C170.254 294.164 170.212 294.496 170.29 294.81Z" fill="#1A2E35" stroke="#1A2E35" stroke-width="0.71" stroke-linecap="round" stroke-linejoin="round"/>
<path d="M172.28 303.54C172.28 303.54 168.85 305.54 169.19 307.07C169.53 308.6 173.19 315.71 174.57 315.8C175.95 315.89 176.72 315.05 176.57 313.55C176.42 312.05 175.12 306.42 174.31 305.17C173.5 303.92 173.33 303.47 172.28 303.54Z" fill="white" stroke="#1A2E35" stroke-width="0.71" stroke-linecap="round" stroke-linejoin="round"/>
<path d="M179.22 306.03C179.22 306.03 182.87 306.49 183.51 307.61C184.15 308.73 181.59 313.16 180.78 314.18C179.97 315.2 178.5 315.18 178.46 312.58C178.531 310.379 178.785 308.188 179.22 306.03Z" fill="white" stroke="#1A2E35" stroke-width="0.71" stroke-linecap="round" stroke-linejoin="round"/>
<path d="M159.47 314.63H199.53C200.65 314.63 201.725 315.074 202.518 315.865C203.311 316.657 203.757 317.73 203.76 318.85C203.76 319.802 203.382 320.715 202.709 321.389C202.035 322.062 201.122 322.44 200.17 322.44H160.03C159.598 322.44 159.17 322.355 158.771 322.19C158.372 322.024 158.009 321.782 157.704 321.476C157.398 321.171 157.156 320.808 156.99 320.409C156.825 320.01 156.74 319.582 156.74 319.15V317.35C156.74 316.992 156.811 316.637 156.948 316.307C157.085 315.976 157.287 315.676 157.54 315.423C157.794 315.17 158.095 314.97 158.426 314.834C158.757 314.698 159.112 314.629 159.47 314.63Z" fill="white" stroke="#1A2E35" stroke-width="0.71" stroke-linecap="round" stroke-linejoin="round"/>
<path d="M230.78 305.41C230.78 305.41 220.35 304.27 217.78 303.41C215.21 302.55 211.07 301.84 209.64 302.98C208.21 304.12 201.21 312.27 201.07 313.27C200.93 314.27 199.5 317.55 200.21 318.41C200.808 319.007 201.543 319.45 202.35 319.7C202.35 319.7 211.64 322.27 212.64 322.41C213.64 322.55 223.21 322.12 223.21 322.12L228.21 320.27L235.21 320.12C235.21 320.12 235.35 322.41 235.49 316.84C235.63 311.27 230.78 305.41 230.78 305.41Z" fill="white" stroke="#1A2E35" stroke-width="0.71" stroke-linecap="round" stroke-linejoin="round"/>
<path d="M202.35 319.7C202.404 318.093 202.694 316.503 203.21 314.98C203.93 313.55 212.07 306.27 212.07 306.27" stroke="#1A2E35" stroke-width="0.71" stroke-linecap="round" stroke-linejoin="round"/>
<path d="M205.07 320.55C205.07 320.55 206.5 316.98 207.07 316.7C207.64 316.42 214.35 312.13 214.35 312.13" stroke="#1A2E35" stroke-width="0.71" stroke-linecap="round" stroke-linejoin="round"/>
<path d="M209.9 321.55C209.9 321.55 210.19 320.12 210.9 319.84C211.61 319.56 217.62 316.84 217.62 316.84" stroke="#1A2E35" stroke-width="0.71" stroke-linecap="round" stroke-linejoin="round"/>
<path d="M216.36 322.26L219.07 321.55L218.79 320.26L215.93 320.98" stroke="#1A2E35" stroke-width="0.71" stroke-linecap="round" stroke-linejoin="round"/>
<path d="M263.49 259.42C263.49 259.42 255.92 275.27 256.35 280.84C256.78 286.41 258.63 295.7 258.63 295.7C258.63 295.7 246.63 300.41 242.49 302.13C238.669 303.498 234.756 304.594 230.78 305.41L234.64 320.55L234.06 322.12H275.63C275.63 322.12 278.77 321.55 279.34 320.84C279.787 320.416 280.144 319.906 280.39 319.34C280.635 318.775 280.765 318.166 280.77 317.55C281.06 315.27 282.92 295.27 282.49 289.7C282.06 284.13 276.2 255.13 275.49 252.13C274.78 249.13 273.49 247.13 272.2 246.42C270.91 245.71 265.35 245.13 265.35 245.13" fill="white"/>
<path d="M263.49 259.42C263.49 259.42 255.92 275.27 256.35 280.84C256.78 286.41 258.63 295.7 258.63 295.7C258.63 295.7 246.63 300.41 242.49 302.13C238.669 303.498 234.756 304.594 230.78 305.41L234.64 320.55L234.06 322.12H275.63C275.63 322.12 278.77 321.55 279.34 320.84C279.787 320.416 280.144 319.906 280.39 319.34C280.635 318.775 280.765 318.166 280.77 317.55C281.06 315.27 282.92 295.27 282.49 289.7C282.06 284.13 276.2 255.13 275.49 252.13C274.78 249.13 273.49 247.13 272.2 246.42C270.91 245.71 265.35 245.13 265.35 245.13" stroke="#1A2E35" stroke-width="0.71" stroke-linecap="round" stroke-linejoin="round"/>
<path d="M259.63 295.98C259.63 295.98 270.63 296.56 276.06 299.98" stroke="#1A2E35" stroke-width="0.71" stroke-linecap="round" stroke-linejoin="round"/>
<path d="M261.63 294.56C261.63 294.56 269.35 294.13 273.49 295.41" stroke="#1A2E35" stroke-width="0.71" stroke-linecap="round" stroke-linejoin="round"/>
<path d="M259.49 258.99C259.49 258.99 255.63 267.99 255.49 271.42C255.35 274.85 255.06 276.84 255.06 276.84" stroke="#1A2E35" stroke-width="0.71" stroke-linecap="round" stroke-linejoin="round"/>
<path d="M241.9 235.14C241.9 235.14 250.61 247.56 243.61 282.14" stroke="#1A2E35" stroke-width="1.43" stroke-linecap="round" stroke-linejoin="round"/>
<path d="M247.78 283.13C247.782 282.281 247.532 281.451 247.062 280.744C246.592 280.037 245.922 279.486 245.139 279.159C244.355 278.833 243.492 278.747 242.659 278.911C241.826 279.076 241.061 279.483 240.46 280.083C239.859 280.683 239.45 281.447 239.283 282.279C239.117 283.112 239.201 283.975 239.526 284.759C239.85 285.544 240.4 286.214 241.106 286.686C241.811 287.158 242.641 287.41 243.49 287.41C244.626 287.41 245.716 286.959 246.52 286.157C247.324 285.355 247.777 284.266 247.78 283.13Z" fill="white" stroke="#1A2E35" stroke-width="0.71" stroke-linecap="round" stroke-linejoin="round"/>
<path d="M212.21 236.42C212.21 236.42 207.78 239.28 207.07 250.85" stroke="#1A2E35" stroke-width="1.43" stroke-linecap="round" stroke-linejoin="round"/>
<path d="M213.19 268.37C212.11 276.18 210.64 284.56 210.31 286.37C209.6 290.29 204.93 291.67 201.93 290.37" stroke="#1A2E35" stroke-width="1.43" stroke-linecap="round" stroke-linejoin="round"/>
<path d="M202 268.92C201 264.55 200.42 260.75 200.64 259.02C201.64 251.02 207.07 250.88 207.07 250.88C208.928 251.173 210.627 252.102 211.876 253.508C213.126 254.914 213.848 256.71 213.92 258.59C213.965 261.875 213.721 265.158 213.19 268.4" stroke="#1A2E35" stroke-width="1.43" stroke-linecap="round" stroke-linejoin="round"/>
<path d="M214.07 289.84C214.07 289.84 211.07 291.56 209.07 290.41C207.72 289.64 204.07 278.01 202 268.89" stroke="#1A2E35" stroke-width="1.43" stroke-linecap="round" stroke-linejoin="round"/>
<path d="M215.118 288.286L213.933 288.797C213.365 289.041 213.103 289.7 213.348 290.268L213.364 290.305C213.609 290.873 214.268 291.135 214.836 290.89L216.02 290.38C216.588 290.135 216.85 289.476 216.605 288.908L216.59 288.871C216.345 288.303 215.686 288.041 215.118 288.286Z" stroke="#1A2E35" stroke-width="0.71" stroke-linecap="round" stroke-linejoin="round"/>
<path d="M202.339 289.061L201.233 288.397C200.703 288.078 200.015 288.25 199.696 288.78L199.676 288.814C199.357 289.345 199.529 290.033 200.059 290.351L201.165 291.015C201.695 291.334 202.383 291.162 202.702 290.632L202.722 290.598C203.041 290.067 202.869 289.379 202.339 289.061Z" stroke="#1A2E35" stroke-width="0.71" stroke-linecap="round" stroke-linejoin="round"/>
<path d="M207.07 201.85C207.07 201.85 204.78 207.28 205.21 210.71C205.64 214.14 210.21 217.85 210.21 217.85C210.21 217.85 211.78 202.57 211.78 202C211.78 201.43 208.9 200.14 207.07 201.85Z" fill="#1A2E35" stroke="#1A2E35" stroke-width="0.71" stroke-linecap="round" stroke-linejoin="round"/>
<path d="M205.43 221.28L208.47 219.16" stroke="#1A2E35" stroke-width="1.43" stroke-linecap="round" stroke-linejoin="round"/>
<path d="M208.78 202.85C208.78 202.85 208.21 217.99 208.5 220.85C208.79 223.71 209.92 232.85 210.92 235.71C211.92 238.57 215.21 247.71 217.78 248.71C220.35 249.71 225.49 250.43 227.21 249.29C228.93 248.15 235.21 243.86 236.92 239.72C237.939 237.303 238.612 234.755 238.92 232.15C240.344 231.388 241.574 230.309 242.516 228.997C243.457 227.684 244.085 226.173 244.35 224.58C245.21 219.15 242.92 217.58 242.92 217.58L243.06 208.15C243.06 208.15 241.49 201.58 237.35 198.01C233.21 194.44 228.35 194.15 223.35 196.86C218.35 199.57 208.78 202.85 208.78 202.85Z" fill="white" stroke="#1A2E35" stroke-width="0.71" stroke-linecap="round" stroke-linejoin="round"/>
<path d="M235.64 202C235.64 202 235.78 198.28 232.21 199.57C228.64 200.86 227.78 203.28 222.49 205.43C217.2 207.58 210.21 205.14 207.78 203.71C205.35 202.28 203.64 200.28 206.93 196.57C210.22 192.86 217.93 189.14 226.21 189.14C234.49 189.14 240.92 196 243.63 198.85C244.805 199.992 245.631 201.444 246.011 203.038C246.392 204.631 246.312 206.3 245.78 207.85C244.78 210.42 242.92 217.57 242.92 217.57C242.92 217.57 241.78 217.42 241.35 219.14C240.92 220.86 241.06 222.71 239.21 222.85C237.36 222.99 237.49 217.99 237.49 217.99C237.49 217.99 232.92 216.57 232.35 213.28C231.78 209.99 235.64 205.14 235.64 202Z" fill="#1A2E35" stroke="#1A2E35" stroke-width="0.71" stroke-linecap="round" stroke-linejoin="round"/>
<path d="M218.64 223.61L205.43 221.29L206.2 227.21C206.245 227.581 206.411 227.927 206.67 228.196C206.93 228.465 207.271 228.642 207.64 228.7L215.64 229.96C216.086 230.039 216.546 229.94 216.92 229.684C217.294 229.428 217.553 229.035 217.64 228.59L218.64 223.61Z" stroke="#1A2E35" stroke-width="1.43" stroke-linecap="round" stroke-linejoin="round"/>
<path d="M221.03 223.92L236.35 223.47L234.85 229.02C234.717 229.392 234.469 229.711 234.141 229.93C233.814 230.15 233.424 230.259 233.03 230.24L223.74 230.37C223.26 230.405 222.783 230.266 222.397 229.977C222.011 229.689 221.742 229.271 221.64 228.8L221.03 223.92Z" stroke="#1A2E35" stroke-width="1.43" stroke-linecap="round" stroke-linejoin="round"/>
<path d="M218.64 223.61L221.03 223.86" stroke="#1A2E35" stroke-width="1.43" stroke-linecap="round" stroke-linejoin="round"/>
<path d="M236.35 223.42L241.35 219.13" stroke="#1A2E35" stroke-width="1.43" stroke-linecap="round" stroke-linejoin="round"/>
<path d="M223.07 222.14C223.07 222.14 227.35 218.85 231.35 220.85" stroke="#1A2E35" stroke-width="1.43" stroke-linecap="round" stroke-linejoin="round"/>
<path d="M216.64 221.42C216.64 221.42 213.35 217.85 209.64 220.28" stroke="#1A2E35" stroke-width="1.43" stroke-linecap="round" stroke-linejoin="round"/>
<path d="M217.5 233.85C217.5 233.85 216.78 236.85 217.5 237.42C218.717 238.095 220.125 238.345 221.5 238.13" stroke="#1A2E35" stroke-width="0.71" stroke-linecap="round" stroke-linejoin="round"/>
<path d="M215.35 239.71C215.35 239.71 218.21 241.85 220.92 241.99C223.63 242.13 226.78 240.13 226.78 240.13" stroke="#1A2E35" stroke-width="0.71" stroke-linecap="round" stroke-linejoin="round"/>
<path d="M225.9 225.14C225.9 225.14 227.62 227.14 230.47 224.99" stroke="#1A2E35" stroke-width="0.71" stroke-linecap="round" stroke-linejoin="round"/>
<path d="M211.9 224.26C211.9 224.26 213.33 226.47 216.45 224.74" stroke="#1A2E35" stroke-width="0.71" stroke-linecap="round" stroke-linejoin="round"/>
<path d="M123.22 201.98C123.22 201.98 124.13 215.6 123.45 216.73L121.45 220.14C121.45 220.14 122.35 229.89 120.54 231.03C119.132 231.779 117.588 232.241 116 232.39C116 232.39 114.18 239.65 113.5 240.56C111.688 242.296 109.625 243.749 107.38 244.87C106.02 245.32 101.7 245.55 91.49 239.42C81.28 233.29 77.43 231.25 77.65 227.85C77.87 224.45 78.33 220.59 78.33 220.59C78.33 220.59 79.47 204.25 81.51 199.26C83.55 194.27 109.42 191.55 115.09 192.91C120.76 194.27 123.22 201.98 123.22 201.98Z" fill="white" stroke="#1A2E35" stroke-width="0.71" stroke-linecap="round" stroke-linejoin="round"/>
<path d="M96.9 224.45L98.49 225.58C98.49 225.58 97.13 231.03 97.81 233.52" stroke="#1A2E35" stroke-width="0.71" stroke-linecap="round" stroke-linejoin="round"/>
<path d="M119.59 219.92C119.36 220.92 118.81 221.72 118.36 221.62C117.91 221.52 117.75 220.62 117.98 219.56C118.21 218.5 118.75 217.76 119.2 217.86C119.65 217.96 119.82 218.85 119.59 219.92Z" fill="#1A2E35"/>
<path d="M117.27 215.72C117.27 215.72 119.74 213.24 121.81 215.58" stroke="#1A2E35" stroke-width="0.71" stroke-linecap="round" stroke-linejoin="round"/>
<path d="M114.14 200.17C114.14 200.17 117.09 205.61 116.87 206.75C116.65 207.89 107.34 210.61 107.34 210.61C107.34 210.61 106.43 216.05 105.07 216.73L103.71 217.41C102.62 215.934 101.704 214.336 100.98 212.65C99.4 209.24 97.13 208.34 94.63 211.74C92.13 215.14 94.18 223.09 95.54 223.74L96.9 224.42C96.9 224.42 95.77 225.55 91.45 226.23C87.13 226.91 83.97 227.82 80.79 226.91C77.61 226 73.07 217.38 71.49 206.26C69.91 195.14 74.89 185.62 81.49 182.67C88.09 179.72 103.05 182.44 104.18 183.12C105.31 183.8 113.03 180.12 117.57 182.44C122.11 184.76 121.88 187.2 123.01 188.79C124.14 190.38 130.01 188.34 130.5 194.01C130.99 199.68 128.69 203.09 125.74 203.54C122.79 203.99 114.14 200.17 114.14 200.17Z" fill="#1A2E35" stroke="#1A2E35" stroke-width="0.71" stroke-linecap="round" stroke-linejoin="round"/>
<path d="M60.42 235.79C60.42 235.79 38.67 247.39 34.53 249.66C30.39 251.93 29.77 254.01 29.53 256.08C29.29 258.15 29.53 328.15 29.53 328.15H146.98C146.98 328.15 129.17 274.72 128.55 268.72C127.93 262.72 126.69 252.15 125.03 250.91C123.37 249.67 99.97 239.31 99.97 239.31C99.97 239.31 94.38 233.31 81.12 233.31C67.86 233.31 60.42 235.79 60.42 235.79Z" fill="#187DF3" stroke="#1A2E35" stroke-width="0.71" stroke-linecap="round" stroke-linejoin="round"/>
<path d="M73.9 278.4C74.51 278.64 75.13 278.87 75.76 279.07L73.9 278.4Z" fill="#187DF3"/>
<path d="M73.9 278.4C74.51 278.64 75.13 278.87 75.76 279.07" stroke="#1A2E35" stroke-width="0.71" stroke-linecap="round" stroke-linejoin="round"/>
<path d="M50.68 259.19C50.68 259.19 59.25 271.19 70.97 277.09L50.68 259.19Z" fill="#187DF3"/>
<path d="M50.68 259.19C50.68 259.19 59.25 271.19 70.97 277.09" stroke="#1A2E35" stroke-width="0.71" stroke-linecap="round" stroke-linejoin="round"/>
<path d="M58.14 273.06C58.14 273.06 62.9 277.83 72.84 280.52L58.14 273.06Z" fill="#187DF3"/>
<path d="M58.14 273.06C58.14 273.06 62.9 277.83 72.84 280.52" stroke="#1A2E35" stroke-width="0.71" stroke-linecap="round" stroke-linejoin="round"/>
<path d="M117.14 255.92C113.84 259.68 109.14 265.69 107.63 271.22L117.14 255.92Z" fill="#187DF3"/>
<path d="M117.14 255.92C113.84 259.68 109.14 265.69 107.63 271.22" stroke="#1A2E35" stroke-width="0.71" stroke-linecap="round" stroke-linejoin="round"/>
<path d="M120.68 252.15C120.68 252.15 120.02 252.78 118.99 253.87L120.68 252.15Z" fill="#187DF3"/>
<path d="M120.68 252.15C120.68 252.15 120.02 252.78 118.99 253.87" stroke="#1A2E35" stroke-width="0.71" stroke-linecap="round" stroke-linejoin="round"/>
<path d="M108.9 264.57C108.9 264.57 105.79 270.57 105.17 274.31L108.9 264.57Z" fill="#187DF3"/>
<path d="M108.9 264.57C108.9 264.57 105.79 270.57 105.17 274.31" stroke="#1A2E35" stroke-width="0.71" stroke-linecap="round" stroke-linejoin="round"/>
<path d="M59.17 236.82C59.17 236.82 71.17 236.41 82.57 236.62C89.0346 236.632 95.4357 237.895 101.42 240.34C101.42 240.34 94.59 232.06 91.48 230.2C88.37 228.34 78.85 225.2 70.98 227.71C66.137 229.344 61.9797 232.55 59.17 236.82Z" fill="#187DF3" stroke="#1A2E35" stroke-width="0.71" stroke-linecap="round" stroke-linejoin="round"/>
<path d="M25.02 328.1L14.07 286.1C13.9696 285.593 13.9827 285.07 14.1085 284.568C14.2343 284.067 14.4697 283.599 14.7976 283.2C15.1256 282.8 15.538 282.478 16.0053 282.257C16.4725 282.036 16.983 281.921 17.5 281.92H104.6C105.401 281.92 106.178 282.193 106.802 282.695C107.425 283.197 107.859 283.898 108.03 284.68L117.7 328.15" fill="#1A2E35"/>
<path d="M25.02 328.1L14.07 286.1C13.9696 285.593 13.9827 285.07 14.1085 284.568C14.2343 284.067 14.4697 283.599 14.7976 283.2C15.1256 282.8 15.538 282.478 16.0053 282.257C16.4725 282.036 16.983 281.921 17.5 281.92H104.6C105.401 281.92 106.178 282.193 106.802 282.695C107.425 283.197 107.859 283.898 108.03 284.68L117.7 328.15" stroke="#1A2E35" stroke-width="0.71" stroke-linecap="round" stroke-linejoin="round"/>
</g>
<defs>
<clipPath id="clip0_900_178">
<rect width="326.94" height="336.24" fill="white"/>
</clipPath>
</defs>
</svg>
