<svg width="307" height="305" viewBox="0 0 307 305" fill="none" xmlns="http://www.w3.org/2000/svg">
<g clip-path="url(#clip0_902_488)">
<path d="M270.9 14.28C249.67 1.06999 224.21 -0.380015 201.78 10.63C182.68 20 167.78 35.85 148.7 45.2C122.54 57.98 93.89 64.96 67.47 77.2C41.05 89.44 15.78 108.64 6.31002 136.2C-4.87998 168.72 -0.929985 206.96 16.14 236.69C43.88 285.02 98.91 302.17 151.88 301.55C263.82 300.23 321.47 164.65 303.2 67.25C299.23 46.09 289.51 25.84 270.9 14.28Z" fill="#E8EBF0"/>
<path d="M63.72 194.5L57.86 195.56L56.71 189.22L49.75 190.48L50.9 196.82L45.05 197.88L46.35 205.09L52.2 204.03L53.35 210.38L60.32 209.12L59.17 202.77L65.02 201.71L63.72 194.5Z" stroke="#5AE4A7" stroke-width="0.7" stroke-linecap="round" stroke-linejoin="round"/>
<path d="M122.2 97.29L116.59 95.31L118.74 89.22L112.07 86.87L109.92 92.95L104.31 90.97L101.87 97.87L107.48 99.85L105.33 105.94L112 108.29L114.15 102.21L119.76 104.19L122.2 97.29Z" stroke="#5AE4A7" stroke-width="0.7" stroke-linecap="round" stroke-linejoin="round"/>
<path d="M263.8 169.96L258.54 172.75L255.52 167.04L249.27 170.35L252.29 176.06L247.03 178.84L250.46 185.31L255.71 182.53L258.73 188.23L264.98 184.92L261.96 179.22L267.22 176.43L263.8 169.96Z" stroke="#5AE4A7" stroke-width="0.7" stroke-linecap="round" stroke-linejoin="round"/>
<path d="M39.25 179.38C41.6083 179.38 43.52 177.468 43.52 175.11C43.52 172.752 41.6083 170.84 39.25 170.84C36.8918 170.84 34.98 172.752 34.98 175.11C34.98 177.468 36.8918 179.38 39.25 179.38Z" stroke="#5AE4A7" stroke-width="0.7" stroke-linecap="round" stroke-linejoin="round"/>
<path d="M105.74 118.06C105.74 118.283 105.674 118.502 105.55 118.688C105.425 118.874 105.249 119.018 105.042 119.104C104.836 119.19 104.609 119.212 104.39 119.168C104.17 119.125 103.969 119.017 103.811 118.859C103.653 118.701 103.545 118.5 103.502 118.28C103.458 118.061 103.481 117.834 103.566 117.628C103.652 117.421 103.796 117.245 103.982 117.12C104.168 116.996 104.387 116.93 104.61 116.93C104.909 116.933 105.195 117.053 105.406 117.264C105.618 117.475 105.737 117.761 105.74 118.06Z" stroke="#5AE4A7" stroke-width="0.7" stroke-linecap="round" stroke-linejoin="round"/>
<path d="M54.04 98.68C54.04 99.4711 53.8054 100.244 53.3659 100.902C52.9264 101.56 52.3016 102.073 51.5707 102.376C50.8398 102.678 50.0356 102.757 49.2596 102.603C48.4837 102.449 47.771 102.068 47.2116 101.508C46.6522 100.949 46.2712 100.236 46.1169 99.4604C45.9625 98.6844 46.0417 97.8802 46.3445 97.1493C46.6472 96.4184 47.1599 95.7936 47.8177 95.3541C48.4755 94.9146 49.2489 94.68 50.04 94.68C51.1009 94.68 52.1183 95.1014 52.8684 95.8516C53.6186 96.6017 54.04 97.6191 54.04 98.68Z" stroke="#5AE4A7" stroke-width="0.7" stroke-linecap="round" stroke-linejoin="round"/>
<path d="M229.81 152.71C229.81 153.157 229.677 153.594 229.429 153.966C229.181 154.337 228.828 154.627 228.415 154.798C228.002 154.969 227.548 155.014 227.109 154.927C226.671 154.839 226.268 154.624 225.952 154.308C225.636 153.992 225.421 153.589 225.333 153.151C225.246 152.713 225.291 152.258 225.462 151.845C225.633 151.432 225.923 151.079 226.294 150.831C226.666 150.583 227.103 150.45 227.55 150.45C228.149 150.45 228.724 150.688 229.148 151.112C229.572 151.536 229.81 152.111 229.81 152.71Z" stroke="#5AE4A7" stroke-width="0.7" stroke-linecap="round" stroke-linejoin="round"/>
<path d="M206.96 83.84C209.755 83.84 212.02 81.5746 212.02 78.78C212.02 75.9854 209.755 73.72 206.96 73.72C204.165 73.72 201.9 75.9854 201.9 78.78C201.9 81.5746 204.165 83.84 206.96 83.84Z" stroke="#5AE4A7" stroke-width="0.7" stroke-linecap="round" stroke-linejoin="round"/>
<path d="M175.83 124.23C176.1 124.64 184.1 126.23 188.24 132.23C190.659 135.696 192.688 139.418 194.29 143.33C194.29 143.33 201.23 147.45 204.78 150.86C208.33 154.27 212.58 158.78 215.85 161.16C219.12 163.54 225.85 168.02 227.55 173.29C227.55 173.29 217.45 200.92 214.6 207.03C211.75 213.14 204.71 226.11 204.71 226.11L192.19 279.44H119.32L116.83 261.15C116.83 261.15 94.58 256.84 85.22 248.64C85.22 248.64 84.34 228.42 88.22 210.37C92.1 192.32 105.38 154.82 114.36 143.37C114.36 143.37 128.71 136.5 141.36 134.28C141.36 134.28 149.58 127.78 154.96 127.09C160.34 126.4 175.83 124.23 175.83 124.23Z" fill="white"/>
<path d="M185.59 81.52C185.59 81.52 187.17 63.05 179.21 61.28C171.25 59.51 166.79 52.22 166.79 52.22L138.56 60.1L134.17 77.1L136.99 85.69C136.99 85.69 137.58 93.69 137.71 97.6C137.84 101.51 137.71 104.6 140.71 109.36C143.71 114.12 146.47 118.9 152.92 123.03V133.84C152.92 133.84 148.92 145.48 151.13 152.62C151.13 152.62 152.45 154.01 156.13 151.92C159.81 149.83 175.34 139.42 180.77 128.56L182.46 100.93C182.46 100.93 186.94 101.62 188.88 97.54C191.71 93.54 191.6 88.88 190.5 85.09C189.4 81.3 184.62 83.84 184.62 83.84L185.59 81.52Z" fill="white"/>
<path d="M153.17 108.58C153.967 107.71 154.95 107.032 156.047 106.595C157.143 106.159 158.323 105.976 159.5 106.06C159.5 106.06 162.9 100.69 166.5 101.68C166.5 101.68 167.6 107.36 163.31 109.6C161.702 110.429 159.889 110.774 158.089 110.593C156.289 110.412 154.58 109.713 153.17 108.58Z" fill="#747474"/>
<path d="M142.68 57.76C142.68 57.76 135.92 66.63 136.31 75.89C136.7 85.15 138.05 91.71 137.66 98.89C137.27 106.07 144.8 117.99 152.52 122.81C158.29 126.42 165.52 125.81 171.13 122.08C177.39 117.93 180.86 110.37 182.13 103.16C182.26 102.45 182.36 101.73 182.43 101.01" stroke="#1A2E35" stroke-width="0.7" stroke-linecap="round" stroke-linejoin="round"/>
<path d="M152.52 122.77C152.52 122.77 153.61 132.77 152.52 136.2C151.31 139.95 149.86 148.71 151.12 152.66C152.38 156.61 176.12 140 180.73 128.6C180.73 128.6 181.36 106.44 182.95 100.9" stroke="#1A2E35" stroke-width="0.7" stroke-linecap="round" stroke-linejoin="round"/>
<path d="M151.89 108.34C151.89 108.34 162.69 111.39 167.11 100.24" stroke="#1A2E35" stroke-width="0.7" stroke-linecap="round" stroke-linejoin="round"/>
<path d="M152.74 125.18C152.74 125.18 155.04 132.31 160 132.74C164.96 133.17 177.39 123.21 181.6 111.49V105.62C181.6 105.62 178.1 120.93 167.9 123.77C157.7 126.61 152.9 123.01 152.9 123.01L152.74 125.18Z" fill="#1A2E35"/>
<path d="M166.47 101.68C161.67 101.34 159.47 106.06 159.47 106.06C158.288 105.915 157.089 106.069 155.982 106.51C154.876 106.95 153.899 107.662 153.14 108.58C154.322 109.64 155.776 110.352 157.338 110.634C158.901 110.917 160.511 110.759 161.99 110.18C167.47 108.29 166.47 101.68 166.47 101.68Z" stroke="#1A2E35" stroke-width="0.7" stroke-linecap="round" stroke-linejoin="round"/>
<path d="M154.44 80.65C154.499 82.8641 154.402 85.0795 154.15 87.28C153.753 89.2592 153.101 91.1786 152.21 92.99C151.52 94.68 150.35 97.28 151.32 99.05C152.42 101.05 156.09 99.05 156.09 99.05" stroke="#1A2E35" stroke-width="0.7" stroke-linecap="round" stroke-linejoin="round"/>
<path d="M158.32 98.63C159.55 98.8 161.32 98.63 161.65 96.49" stroke="#1A2E35" stroke-width="0.7" stroke-linecap="round" stroke-linejoin="round"/>
<path d="M162.32 77.98C163.511 76.8401 165.096 76.2038 166.745 76.2038C168.394 76.2038 169.979 76.8401 171.17 77.98" stroke="#1A2E35" stroke-width="1.39" stroke-linecap="round" stroke-linejoin="round"/>
<path d="M148.25 79.72C148.25 79.72 144.98 75.51 140.7 79.72" stroke="#1A2E35" stroke-width="1.39" stroke-linecap="round" stroke-linejoin="round"/>
<path d="M179.85 90.3C179.85 90.3 183.58 81.3 188.45 83.3C191.8 84.63 192 90.41 190.22 94.42C188.44 98.43 187.56 102.57 181.63 100.27" stroke="#1A2E35" stroke-width="0.7" stroke-linecap="round" stroke-linejoin="round"/>
<path d="M180.51 88.92C180.51 88.92 176.93 87.66 176.27 81.84C175.61 76.02 179.17 70.2 177.85 65.97C176.53 61.74 166.08 63.85 163.7 56.58C163.7 56.58 155.87 62.43 140.7 61.17C140.7 61.17 137.49 66.62 136.94 69.96C136.179 75.169 136.179 80.461 136.94 85.67C136.94 85.85 137.01 86.03 137.04 86.2C138.13 91.89 132.71 78.48 132.84 72.75C132.97 67.02 129.54 59.75 134.03 54.33C138.52 48.91 155.03 45.74 158.29 43.23C161.55 40.72 167.88 47.46 175.16 49.97C182.44 52.48 188.51 55.45 187.59 65.8C186.67 76.15 187.64 77.54 187.68 83C187.73 83 184.32 81.73 180.51 88.92Z" fill="#1A2E35"/>
<path d="M166.76 85.55C166.76 86.96 166.23 88.1 165.56 88.1C164.89 88.1 164.36 86.96 164.36 85.55C164.36 84.14 164.9 83 165.56 83C166.22 83 166.76 84.14 166.76 85.55Z" fill="#1A2E35"/>
<path d="M148.25 85.55C148.25 86.96 147.71 88.1 147.05 88.1C146.39 88.1 145.85 86.96 145.85 85.55C145.85 84.14 146.39 83 147.05 83C147.71 83 148.25 84.14 148.25 85.55Z" fill="#1A2E35"/>
<path d="M162.32 88.92C163.85 90.472 165.818 91.5188 167.96 91.92" stroke="#1A2E35" stroke-width="0.7" stroke-linecap="round" stroke-linejoin="round"/>
<path d="M145.37 91.95C145.37 91.95 149.92 91.62 150.95 88.95" stroke="#1A2E35" stroke-width="0.7" stroke-linecap="round" stroke-linejoin="round"/>
<path d="M155.95 154.36C159.34 152.2 163.82 153.01 167.54 154.54C169.54 155.38 171.54 156.44 173.54 157.3C174.542 157.741 175.575 158.108 176.63 158.4C179.18 159.06 178.27 155.9 178.12 154.49C177.91 152.49 177.76 150.43 177.52 148.4C177.423 147.986 177.473 147.552 177.66 147.17C177.909 146.853 178.264 146.637 178.66 146.56C183.13 145.14 187.95 145.78 192.66 145.88C193.08 145.923 193.504 145.843 193.88 145.65C194.58 145.19 194.51 144.17 194.32 143.36C192.7 136.47 187.02 129.61 180.84 126.17" stroke="#1A2E35" stroke-width="0.7" stroke-linecap="round" stroke-linejoin="round"/>
<path d="M152.91 127.3C149.774 128.448 146.789 129.973 144.02 131.84C143.061 132.545 142.177 133.346 141.38 134.23C140.739 134.837 140.335 135.652 140.24 136.53C140.263 136.936 140.375 137.333 140.566 137.692C140.758 138.051 141.025 138.364 141.35 138.61C141.818 139.009 142.335 139.345 142.89 139.61C144.17 140.21 145.64 140.81 146.22 142.1C146.355 142.369 146.404 142.673 146.36 142.97C146.295 143.24 146.161 143.488 145.97 143.69C144.91 144.98 143.04 145.98 143.16 147.69C143.25 148.98 144.54 149.81 145.71 150.35C146.88 150.89 148.22 151.52 148.62 152.75" stroke="#1A2E35" stroke-width="0.7" stroke-linecap="round" stroke-linejoin="round"/>
<path d="M134.7 61.9C135.15 59.1 138.07 57.31 140.87 56.9C143.67 56.49 146.55 56.9 149.38 56.66C151.743 56.4249 154.028 55.6854 156.081 54.4917C158.134 53.2979 159.907 51.6775 161.28 49.74" stroke="white" stroke-width="0.7" stroke-linecap="round" stroke-linejoin="round"/>
<path d="M137.88 54.06C142.94 51.06 150.05 54.18 154.99 50.99C156.389 49.971 157.606 48.7235 158.59 47.3" stroke="white" stroke-width="0.7" stroke-linecap="round" stroke-linejoin="round"/>
<path d="M202.46 168.53C184.3 172.14 177.57 185.53 177.57 185.53L156.09 219.36" stroke="#1A2E35" stroke-width="0.7" stroke-linecap="round" stroke-linejoin="round"/>
<path d="M187.13 164.84C188.632 163.443 190.339 162.283 192.19 161.4" stroke="#1A2E35" stroke-width="0.7" stroke-linecap="round" stroke-linejoin="round"/>
<path d="M174.45 190.4C174.45 190.4 176.74 178.18 183.31 169.18" stroke="#1A2E35" stroke-width="0.7" stroke-linecap="round" stroke-linejoin="round"/>
<path d="M118.55 216.46C118.55 216.46 117.61 179.04 114.38 173.32" stroke="#1A2E35" stroke-width="0.7" stroke-linecap="round" stroke-linejoin="round"/>
<path d="M194.32 143.36C194.32 143.36 204.78 149.62 209.42 155.53C214.06 161.44 225.04 165.35 227.58 173.32C227.58 173.32 213.12 218.87 197.97 235.32C182.82 251.77 174.48 258.54 174.48 258.54C174.48 258.54 138.04 252.21 114.41 232.36L122.86 212.94C122.86 212.94 146.69 215.94 156.12 219.3C165.55 222.66 174.48 242.92 174.48 242.92" stroke="#1A2E35" stroke-width="0.7" stroke-linecap="round" stroke-linejoin="round"/>
<path d="M156.09 219.32C156.09 219.32 172.77 222.56 178.18 230.16" stroke="#1A2E35" stroke-width="0.7" stroke-linecap="round" stroke-linejoin="round"/>
<path d="M204.08 227.13L192.18 279.46H119.34L116.86 261.17" stroke="#1A2E35" stroke-width="0.7" stroke-linecap="round" stroke-linejoin="round"/>
<path d="M150.71 256C146.71 264.24 141.38 262.42 141.38 262.42C100.38 263.97 85.22 248.64 85.22 248.64C85.22 248.64 83.14 227.07 91.22 197.96C99.3 168.85 114.4 143.36 114.4 143.36C121.1 138.9 136.05 135.42 140.27 134.5L141.4 134.27" stroke="#1A2E35" stroke-width="0.7" stroke-linecap="round" stroke-linejoin="round"/>
<path d="M141.38 262.42C141.38 262.42 139.21 262.06 139.77 247.68" stroke="#1A2E35" stroke-width="0.7" stroke-linecap="round" stroke-linejoin="round"/>
<path d="M115.49 233.3C115.49 233.3 105.23 229.69 92.54 238.48" stroke="#1A2E35" stroke-width="0.7" stroke-linecap="round" stroke-linejoin="round"/>
<path d="M94.84 230.16C94.84 230.16 108.27 226.16 114.38 232.56" stroke="#1A2E35" stroke-width="0.7" stroke-linecap="round" stroke-linejoin="round"/>
<path d="M112.92 232.2L114.66 233.07L121.32 216.49C121.32 216.49 114.45 215.36 103.55 228.93C106.945 228.979 110.232 230.126 112.92 232.2Z" fill="white" stroke="#1A2E35" stroke-width="0.7" stroke-miterlimit="10"/>
<path d="M139.77 247.68V255.05C139.77 255.05 149.17 257.84 156.13 253.83L139.77 247.68Z" fill="white" stroke="#1A2E35" stroke-width="0.7" stroke-miterlimit="10"/>
<path d="M190.68 145.84C190.7 145.976 190.7 146.114 190.68 146.25C190.39 147.4 183.22 174.44 160.3 186.47C159.976 186.609 159.612 186.621 159.28 186.503C158.949 186.385 158.673 186.147 158.509 185.835C158.345 185.524 158.305 185.162 158.396 184.822C158.487 184.482 158.702 184.188 159 184C179.9 173 187.3 148 187.94 145.73L190.68 145.84Z" fill="#1A2E35"/>
<path d="M141.32 138.65C137.713 146.92 135.769 155.819 135.6 164.84C135.6 165.57 135.6 166.32 135.6 167.08C135.6 167.26 135.6 167.45 135.6 167.64C135.39 167.64 135.19 167.64 134.98 167.7C134.227 167.82 133.496 168.049 132.81 168.38C132.81 167.38 132.81 166.38 132.81 165.38C133.11 149.73 137.81 139.09 140.27 134.48L141.4 134.25C140.759 134.857 140.355 135.672 140.26 136.55C140.274 136.956 140.377 137.354 140.56 137.716C140.743 138.079 141.002 138.397 141.32 138.65Z" fill="#1A2E35"/>
<path d="M168.81 180.15C170.45 182.42 169.11 186.15 165.81 188.56C162.51 190.97 158.53 191.02 156.89 188.75C155.25 186.48 156.59 182.75 159.89 180.34C163.19 177.93 167.18 177.84 168.81 180.15Z" fill="white" stroke="#1A2E35" stroke-width="0.7" stroke-linecap="round" stroke-linejoin="round"/>
<path d="M164.76 178.84C165.92 180.45 164.97 183.11 162.64 184.84C160.31 186.57 157.49 186.58 156.33 184.98C155.17 183.38 156.12 180.71 158.45 179.03C160.78 177.35 163.6 177.2 164.76 178.84Z" fill="white" stroke="#1A2E35" stroke-width="0.7" stroke-linecap="round" stroke-linejoin="round"/>
<path d="M146.32 207.11C146.174 207.22 146.007 207.299 145.83 207.345C145.653 207.39 145.468 207.4 145.287 207.374C144.921 207.321 144.591 207.126 144.37 206.83C144.149 206.534 144.054 206.163 144.106 205.797C144.159 205.431 144.354 205.101 144.65 204.88C144.77 204.78 149.45 200.8 147.4 187.39C147.22 186.25 147 185.04 146.72 183.76C145.83 179.69 144.47 174.55 141.72 170.76C141.058 169.76 140.149 168.948 139.079 168.405C138.01 167.861 136.818 167.605 135.62 167.66C135.41 167.66 135.21 167.66 135 167.72C134.247 167.84 133.516 168.069 132.83 168.4C130.745 169.476 129.162 171.324 128.42 173.55L128.17 174.27C126.588 178.548 125.295 182.928 124.3 187.38C123.18 192.85 122.81 198.59 124.79 202.6C125.318 203.701 126.073 204.679 127.006 205.468C127.938 206.257 129.026 206.841 130.2 207.18C130.521 207.277 130.796 207.488 130.975 207.772C131.153 208.056 131.222 208.396 131.17 208.727C131.117 209.059 130.947 209.36 130.69 209.576C130.432 209.791 130.106 209.906 129.77 209.9C129.618 209.907 129.465 209.886 129.32 209.84C127.802 209.379 126.396 208.607 125.191 207.574C123.986 206.541 123.008 205.27 122.32 203.84C120.09 199.33 120.38 193.19 121.51 187.39C122.519 182.63 123.876 177.951 125.57 173.39L125.82 172.68C126.367 171.024 127.281 169.514 128.493 168.26C129.705 167.006 131.184 166.042 132.82 165.44C133.389 165.245 133.975 165.101 134.57 165.01C134.93 164.96 135.28 164.93 135.63 164.91C137.262 164.866 138.879 165.231 140.334 165.972C141.789 166.712 143.035 167.805 143.96 169.15C147.07 173.36 148.55 178.87 149.49 183.21C149.82 184.7 150.07 186.1 150.25 187.43C152.41 202.44 146.6 206.91 146.32 207.11Z" fill="#1A2E35" stroke="#1A2E35" stroke-width="0.7" stroke-miterlimit="10"/>
<path d="M128.73 209.65C128.73 209.65 133.79 211.73 135.07 209.65C136.35 207.57 135.32 206.57 133.57 206.4C131.821 206.309 130.069 206.309 128.32 206.4L128.73 209.65Z" fill="#1A2E35" stroke="#1A2E35" stroke-width="0.7" stroke-miterlimit="10"/>
<path d="M131.05 208.95C130.935 209.295 130.69 209.582 130.367 209.748C130.043 209.914 129.667 209.947 129.32 209.84C127.802 209.378 126.396 208.606 125.191 207.574C123.986 206.541 123.009 205.27 122.32 203.84C120.09 199.33 120.38 193.19 121.51 187.39H124.33C123.21 192.86 122.84 198.6 124.82 202.61C125.348 203.711 126.103 204.689 127.036 205.478C127.968 206.267 129.056 206.851 130.23 207.19C130.568 207.32 130.842 207.577 130.995 207.905C131.148 208.233 131.167 208.608 131.05 208.95Z" fill="white" stroke="#1A2E35" stroke-width="0.7" stroke-linecap="round" stroke-linejoin="round"/>
<path d="M141.67 205.59C141.459 205.839 141.302 206.13 141.211 206.443C141.119 206.757 141.095 207.086 141.14 207.41C141.28 207.887 141.583 208.301 141.995 208.578C142.408 208.856 142.905 208.98 143.4 208.93C144.393 208.795 145.3 208.292 145.94 207.52C146.65 206.73 149.06 201.63 146.83 202.52C145.2 203.14 142.75 204.18 141.67 205.59Z" fill="#1A2E35" stroke="#1A2E35" stroke-width="0.7" stroke-miterlimit="10"/>
<path d="M146.32 207.11C146.174 207.219 146.007 207.298 145.83 207.343C145.653 207.387 145.469 207.397 145.288 207.37C145.108 207.344 144.934 207.282 144.778 207.189C144.621 207.095 144.484 206.971 144.375 206.825C144.266 206.679 144.187 206.512 144.142 206.335C144.098 206.158 144.088 205.974 144.115 205.793C144.141 205.613 144.203 205.439 144.297 205.283C144.39 205.126 144.514 204.989 144.66 204.88C144.78 204.78 149.46 200.8 147.41 187.39H150.22C152.41 202.44 146.6 206.91 146.32 207.11Z" fill="white" stroke="#1A2E35" stroke-width="0.7" stroke-linecap="round" stroke-linejoin="round"/>
<path opacity="0.2" d="M158.84 83.84C158.84 83.84 167.62 79.28 175.68 83.84C175.68 83.84 175.82 90.57 172.77 93.34C171.69 94.34 166.77 94.49 164.87 94.34C157.25 93.63 158.84 83.84 158.84 83.84Z" fill="white"/>
<path opacity="0.2" d="M153.32 83.84C153.32 83.84 144.54 79.28 136.48 83.84C136.48 83.84 136.34 90.57 139.39 93.34C140.47 94.34 145.39 94.49 147.29 94.34C154.92 93.63 153.32 83.84 153.32 83.84Z" fill="white"/>
<path d="M158.84 83.84C158.84 83.84 167.62 79.28 175.68 83.84C175.68 83.84 175.82 90.57 172.77 93.34C171.69 94.34 166.77 94.49 164.87 94.34C157.25 93.63 158.84 83.84 158.84 83.84Z" stroke="#1A2E35" stroke-width="0.7" stroke-miterlimit="10"/>
<path d="M153.32 83.84C153.32 83.84 144.54 79.28 136.48 83.84C136.48 83.84 136.34 90.57 139.39 93.34C140.47 94.34 145.39 94.49 147.29 94.34C154.92 93.63 153.32 83.84 153.32 83.84Z" stroke="#1A2E35" stroke-width="0.7" stroke-miterlimit="10"/>
<path d="M153.32 83.84C153.32 83.84 155.32 82.4 158.83 83.84" stroke="#1A2E35" stroke-width="0.7" stroke-miterlimit="10"/>
<path d="M175.68 83.84L179.35 85.54" stroke="#1A2E35" stroke-width="0.7" stroke-miterlimit="10"/>
<path d="M35.27 298.03L61.08 273.65H265.93L281.45 298.03H35.27Z" fill="white" stroke="#1A2E35" stroke-width="0.7" stroke-linecap="round" stroke-linejoin="round"/>
<path d="M281.44 298.03H35.27V304.59H281.44V298.03Z" fill="#1A2E35" stroke="#1A2E35" stroke-width="0.7" stroke-linecap="round" stroke-linejoin="round"/>
<path d="M61.08 292.01V286.95H101.53V292.01H93.73H61.08Z" fill="white" stroke="#1A2E35" stroke-width="0.7" stroke-miterlimit="10"/>
<path d="M61.08 286.95L84.98 270.92L116.86 271.67L101.53 286.95H61.08Z" fill="white" stroke="#1A2E35" stroke-width="0.7" stroke-linecap="round" stroke-linejoin="round"/>
<path d="M101.53 292.01L116.86 276.65V271.67L101.53 286.95V292.01Z" fill="white" stroke="#1A2E35" stroke-width="0.7" stroke-linecap="round" stroke-linejoin="round"/>
<path d="M100.44 285.68C100.44 285.68 97.21 286.32 97.21 289.12C97.2382 289.936 97.5201 290.724 98.0166 291.373C98.513 292.021 99.1993 292.499 99.98 292.74" stroke="#1A2E35" stroke-width="1.39" stroke-linecap="round" stroke-linejoin="round"/>
<path d="M97.21 285.68C97.21 285.68 93.98 286.32 93.98 289.12C94.0082 289.936 94.2901 290.724 94.7866 291.373C95.283 292.021 95.9693 292.499 96.75 292.74" stroke="#1A2E35" stroke-width="1.39" stroke-linecap="round" stroke-linejoin="round"/>
<path d="M93.98 285.68C93.98 285.68 90.75 286.32 90.75 289.12C90.7782 289.936 91.0601 290.724 91.5566 291.373C92.053 292.021 92.7393 292.499 93.52 292.74" stroke="#1A2E35" stroke-width="1.39" stroke-linecap="round" stroke-linejoin="round"/>
<path d="M90.75 285.68C90.75 285.68 87.52 286.32 87.52 289.12C87.5503 289.94 87.8366 290.73 88.3387 291.38C88.8409 292.029 89.5337 292.505 90.32 292.74" stroke="#1A2E35" stroke-width="1.39" stroke-linecap="round" stroke-linejoin="round"/>
<path d="M87.52 285.68C87.52 285.68 84.3 286.32 84.3 289.12C84.3275 289.935 84.608 290.722 85.1025 291.37C85.5971 292.019 86.2812 292.498 87.06 292.74" stroke="#1A2E35" stroke-width="1.39" stroke-linecap="round" stroke-linejoin="round"/>
<path d="M84.32 285.68C84.32 285.68 81.09 286.32 81.09 289.12C81.1182 289.936 81.4001 290.724 81.8966 291.373C82.393 292.021 83.0793 292.499 83.86 292.74" stroke="#1A2E35" stroke-width="1.39" stroke-linecap="round" stroke-linejoin="round"/>
<path d="M81.07 285.68C81.07 285.68 77.84 286.32 77.84 289.12C77.8682 289.936 78.1501 290.724 78.6466 291.373C79.143 292.021 79.8293 292.499 80.61 292.74" stroke="#1A2E35" stroke-width="1.39" stroke-linecap="round" stroke-linejoin="round"/>
<path d="M77.84 285.68C77.84 285.68 74.61 286.32 74.61 289.12C74.6382 289.936 74.9201 290.724 75.4166 291.373C75.913 292.021 76.5993 292.499 77.38 292.74" stroke="#1A2E35" stroke-width="1.39" stroke-linecap="round" stroke-linejoin="round"/>
<path d="M74.21 285.68C74.21 285.68 70.98 286.32 70.98 289.12C71.0082 289.936 71.2901 290.724 71.7866 291.373C72.283 292.021 72.9693 292.499 73.75 292.74" stroke="#1A2E35" stroke-width="1.39" stroke-linecap="round" stroke-linejoin="round"/>
<path d="M70.57 285.68C70.57 285.68 67.35 286.32 67.35 289.12C67.3775 289.935 67.658 290.722 68.1525 291.37C68.6471 292.019 69.3312 292.498 70.11 292.74" stroke="#1A2E35" stroke-width="1.39" stroke-linecap="round" stroke-linejoin="round"/>
<path d="M66.54 285.68C66.54 285.68 63.31 286.32 63.31 289.12C63.3382 289.936 63.6201 290.724 64.1166 291.373C64.613 292.021 65.2993 292.499 66.08 292.74" stroke="#1A2E35" stroke-width="1.39" stroke-linecap="round" stroke-linejoin="round"/>
<path d="M87.01 274.84C84.7967 276.081 83.043 278.003 82.01 280.32C84.93 279.42 87.27 277.26 89.49 275.17C88.69 277.17 87.88 279.17 87.08 281.17C88.1826 281.074 89.2479 280.723 90.1919 280.145C91.1359 279.567 91.9329 278.778 92.52 277.84C92.3268 277.918 92.1525 278.037 92.0087 278.188C91.8649 278.339 91.7548 278.519 91.6857 278.715C91.6167 278.912 91.5903 279.121 91.6083 279.329C91.6262 279.537 91.6882 279.738 91.79 279.92C93.79 279.63 95.1 277.67 96.12 275.92C96.3086 276.908 96.3825 277.915 96.34 278.92C98.033 279.166 99.761 278.948 101.34 278.29" stroke="#1A2E35" stroke-width="0.52" stroke-linecap="round" stroke-linejoin="round"/>
<path d="M264.57 249.23H194.27V287.83H264.57V249.23Z" fill="white" stroke="#1A2E35" stroke-width="0.7" stroke-linecap="round" stroke-linejoin="round"/>
<path d="M193.99 287.82L182.69 277.07V238.47L193.99 249.23V287.82Z" fill="white" stroke="#1A2E35" stroke-width="0.7" stroke-linecap="round" stroke-linejoin="round"/>
<path d="M264.57 249.23L253.26 238.47H182.96L194.27 249.23H264.57Z" fill="white" stroke="#1A2E35" stroke-width="0.7" stroke-linecap="round" stroke-linejoin="round"/>
<path d="M238.71 263.7H232.5V257.21H223.74V263.7H216.96V272.46H223.74V278.96H232.5V272.46H238.71V263.7Z" fill="#C21735" stroke="#1A2E35" stroke-width="0.7" stroke-miterlimit="10"/>
<path d="M228.8 249.23L217.5 238.47" stroke="#1A2E35" stroke-width="0.7" stroke-linecap="round" stroke-linejoin="round"/>
<path d="M79.4329 85.8952C88.0356 78.1166 88.7037 64.8369 80.9251 56.2342C73.1465 47.6315 59.8668 46.9634 51.2641 54.742C42.6614 62.5206 41.9933 75.8003 49.7719 84.403C57.5505 93.0057 70.8302 93.6738 79.4329 85.8952Z" fill="white" stroke="#1A2E35" stroke-width="0.7" stroke-linecap="round" stroke-linejoin="round"/>
<path d="M82.8 67.11C82.7986 68.5148 82.357 69.8837 81.5373 71.0245C80.7175 72.1653 79.5609 73.0206 78.23 73.47L68.86 76.63L57.44 80.49C55.7544 81.0526 53.9147 80.9257 52.3222 80.137C50.7298 79.3483 49.514 77.9618 48.94 76.28C48.7081 75.5938 48.5899 74.8743 48.59 74.15C48.591 72.7441 49.031 71.3736 49.8485 70.2299C50.6659 69.0861 51.8202 68.2261 53.15 67.77L63.52 64.28L73.94 60.77C74.9482 60.4313 76.0224 60.3367 77.0743 60.4941C78.1262 60.6514 79.1257 61.0562 79.9907 61.6752C80.8556 62.2941 81.5613 63.1095 82.0497 64.0543C82.5381 64.9992 82.7952 66.0464 82.8 67.11Z" fill="white"/>
<path d="M82.8 67.11C82.7986 68.5148 82.357 69.8837 81.5372 71.0245C80.7175 72.1653 79.5609 73.0206 78.23 73.47L68.86 76.63C68.6103 72.0081 66.7163 67.6278 63.52 64.28L73.94 60.77C74.9482 60.4313 76.0224 60.3367 77.0743 60.4941C78.1262 60.6514 79.1257 61.0562 79.9906 61.6752C80.8556 62.2941 81.5613 63.1095 82.0497 64.0543C82.5381 64.9992 82.7952 66.0464 82.8 67.11Z" fill="#C21735"/>
<path d="M82.8 67.11C82.7986 68.5148 82.357 69.8837 81.5373 71.0245C80.7175 72.1653 79.5609 73.0206 78.23 73.47L68.86 76.63L57.44 80.49C55.7544 81.0526 53.9147 80.9257 52.3222 80.137C50.7298 79.3483 49.514 77.9618 48.94 76.28C48.7081 75.5938 48.5899 74.8743 48.59 74.15C48.591 72.7441 49.031 71.3736 49.8485 70.2299C50.6659 69.0861 51.8202 68.2261 53.15 67.77L63.52 64.28L73.94 60.77C74.9482 60.4313 76.0224 60.3367 77.0743 60.4941C78.1262 60.6514 79.1257 61.0562 79.9907 61.6752C80.8556 62.2941 81.5613 63.1095 82.0497 64.0543C82.5381 64.9992 82.7952 66.0464 82.8 67.11Z" stroke="#1A2E35" stroke-width="0.7" stroke-linecap="round" stroke-linejoin="round"/>
<path d="M68.86 76.63C68.646 71.9998 66.7468 67.6075 63.52 64.28" stroke="#1A2E35" stroke-width="0.7" stroke-linecap="round" stroke-linejoin="round"/>
<path d="M80.58 64.57C81.0169 65.3113 81.2385 66.1597 81.22 67.02" stroke="white" stroke-width="0.7" stroke-linecap="round" stroke-linejoin="round"/>
<path d="M66.19 65.31L74.54 62.55C75.2892 62.2951 76.0855 62.2087 76.872 62.2968C77.6584 62.385 78.4158 62.6456 79.09 63.06" stroke="white" stroke-width="0.7" stroke-linecap="round" stroke-linejoin="round"/>
<path d="M208.032 41.8413C218.713 37.3208 223.707 24.9978 219.186 14.317C214.666 3.63629 202.343 -1.35756 191.662 3.16295C180.981 7.68346 175.987 20.0065 180.508 30.6872C185.028 41.368 197.351 46.3618 208.032 41.8413Z" fill="white" stroke="#1A2E35" stroke-width="0.7" stroke-linecap="round" stroke-linejoin="round"/>
<path d="M207.09 31.29L188.78 25.16C187.263 24.6468 186.01 23.5547 185.294 22.1218C184.579 20.6888 184.459 19.0312 184.96 17.51C185.471 15.9912 186.563 14.7366 187.996 14.0207C189.43 13.3048 191.089 13.1859 192.61 13.69L210.93 19.84C212.447 20.353 213.699 21.4456 214.413 22.879C215.127 24.3125 215.245 25.9702 214.74 27.49C214.225 29.0051 213.132 30.2551 211.698 30.967C210.265 31.6789 208.609 31.795 207.09 31.29Z" fill="#187DF3"/>
<path d="M193.67 24.66L196.74 17.34" stroke="#1A2E35" stroke-width="0.7" stroke-linecap="round" stroke-linejoin="round"/>
<path d="M203.76 28.02L206.82 20.71" stroke="#1A2E35" stroke-width="0.7" stroke-linecap="round" stroke-linejoin="round"/>
<path d="M196.2 25.1C196.542 25.1 196.82 24.8224 196.82 24.48C196.82 24.1376 196.542 23.86 196.2 23.86C195.858 23.86 195.58 24.1376 195.58 24.48C195.58 24.8224 195.858 25.1 196.2 25.1Z" fill="#1A2E35"/>
<path d="M202.32 26.31C202.32 26.4744 202.255 26.6321 202.138 26.7484C202.022 26.8647 201.864 26.93 201.7 26.93C201.536 26.93 201.378 26.8647 201.262 26.7484C201.145 26.6321 201.08 26.4744 201.08 26.31C201.08 26.1456 201.145 25.9879 201.262 25.8716C201.378 25.7553 201.536 25.69 201.7 25.69C201.864 25.69 202.022 25.7553 202.138 25.8716C202.255 25.9879 202.32 26.1456 202.32 26.31Z" fill="#1A2E35"/>
<path d="M198.61 19.57C198.952 19.57 199.23 19.2924 199.23 18.95C199.23 18.6076 198.952 18.33 198.61 18.33C198.268 18.33 197.99 18.6076 197.99 18.95C197.99 19.2924 198.268 19.57 198.61 19.57Z" fill="#1A2E35"/>
<path d="M204.62 20.73C204.621 20.8118 204.606 20.893 204.576 20.9689C204.545 21.0447 204.499 21.1136 204.441 21.1714C204.384 21.2293 204.315 21.2749 204.239 21.3056C204.163 21.3362 204.082 21.3513 204 21.35C203.836 21.35 203.678 21.2847 203.562 21.1684C203.445 21.0521 203.38 20.8944 203.38 20.73C203.38 20.5656 203.445 20.4079 203.562 20.2916C203.678 20.1753 203.836 20.11 204 20.11C204.164 20.11 204.322 20.1753 204.438 20.2916C204.555 20.4079 204.62 20.5656 204.62 20.73Z" fill="#1A2E35"/>
<path d="M207.09 31.29L188.78 25.16C187.263 24.6468 186.01 23.5547 185.294 22.1218C184.579 20.6888 184.459 19.0312 184.96 17.51C185.471 15.9912 186.563 14.7366 187.996 14.0207C189.43 13.3048 191.089 13.1859 192.61 13.69L210.93 19.84C212.447 20.353 213.699 21.4456 214.413 22.879C215.127 24.3125 215.245 25.9702 214.74 27.49C214.225 29.0051 213.132 30.2551 211.698 30.967C210.265 31.6789 208.609 31.795 207.09 31.29Z" stroke="#1A2E35" stroke-width="0.7" stroke-linecap="round" stroke-linejoin="round"/>
<path d="M120.58 42.35C132.178 42.35 141.58 32.948 141.58 21.35C141.58 9.75203 132.178 0.350006 120.58 0.350006C108.982 0.350006 99.58 9.75203 99.58 21.35C99.58 32.948 108.982 42.35 120.58 42.35Z" fill="white" stroke="#1A2E35" stroke-width="0.7" stroke-linecap="round" stroke-linejoin="round"/>
<path d="M132.61 21.89V30.5C132.61 32.69 131.22 34.5 129.5 34.5H111.65C109.94 34.5 108.55 32.73 108.55 30.5V21.89C108.55 19.71 109.94 17.89 111.65 17.89H114.59V12.89H126.47V17.89H129.47C131.22 17.94 132.61 19.71 132.61 21.89Z" fill="white" stroke="#1A2E35" stroke-width="0.7" stroke-linecap="round" stroke-linejoin="round"/>
<path d="M132.61 22.88H108.55V28.22H132.61V22.88Z" fill="#187DF3" stroke="#1A2E35" stroke-width="0.7" stroke-miterlimit="10"/>
<path d="M116.22 7.10001H125C125.995 7.10001 126.948 7.49509 127.652 8.19836C128.355 8.90162 128.75 9.85544 128.75 10.85V14.75H112.47V10.85C112.47 9.85544 112.865 8.90162 113.568 8.19836C114.272 7.49509 115.225 7.10001 116.22 7.10001Z" fill="#187DF3" stroke="#1A2E35" stroke-width="0.7" stroke-miterlimit="10"/>
<path d="M115.32 7.33V14.75" stroke="#1A2E35" stroke-width="0.7" stroke-linecap="round" stroke-linejoin="round"/>
<path d="M119.17 7.10001V14.75" stroke="#1A2E35" stroke-width="0.7" stroke-linecap="round" stroke-linejoin="round"/>
<path d="M123.03 7.10001V14.75" stroke="#1A2E35" stroke-width="0.7" stroke-linecap="round" stroke-linejoin="round"/>
<path d="M126.89 7.53V14.75" stroke="#1A2E35" stroke-width="0.7" stroke-linecap="round" stroke-linejoin="round"/>
<path d="M66.7771 136.149C68.6534 124.704 60.8963 113.905 49.451 112.028C38.0058 110.152 27.2066 117.909 25.3304 129.354C23.4541 140.8 31.2112 151.599 42.6565 153.475C54.1017 155.351 64.9009 147.594 66.7771 136.149Z" fill="white" stroke="#1A2E35" stroke-width="0.7" stroke-linecap="round" stroke-linejoin="round"/>
<path d="M56.7081 138.165C58.996 133.327 55.8522 127.042 49.6863 124.126C43.5203 121.21 36.667 122.768 34.3791 127.606C32.0912 132.444 35.235 138.729 41.401 141.645C47.567 144.561 54.4202 143.003 56.7081 138.165Z" fill="#187DF3" stroke="#1A2E35" stroke-width="0.7" stroke-linecap="round" stroke-linejoin="round"/>
<path d="M57.4714 136.523C59.6177 131.985 56.359 125.942 50.193 123.026C44.0271 120.11 37.2887 121.425 35.1424 125.963C32.9962 130.502 36.2548 136.545 42.4208 139.461C48.5868 142.376 55.3252 141.061 57.4714 136.523Z" fill="#187DF3" stroke="#1A2E35" stroke-width="0.7" stroke-linecap="round" stroke-linejoin="round"/>
<path d="M49.87 125.03L42.25 135.76" stroke="#1A2E35" stroke-width="0.7" stroke-linecap="round" stroke-linejoin="round"/>
<path d="M45.32 123.3C46.3395 123.43 47.3442 123.658 48.32 123.98" stroke="white" stroke-width="0.7" stroke-linecap="round" stroke-linejoin="round"/>
<path d="M38.51 133.4C38.51 133.4 34.61 129.13 38.42 125.03C39.2919 124.137 40.4278 123.548 41.66 123.35" stroke="white" stroke-width="0.7" stroke-linecap="round" stroke-linejoin="round"/>
<path d="M287.966 136.172C289.842 124.727 282.085 113.928 270.639 112.052C259.194 110.175 248.395 117.932 246.519 129.378C244.642 140.823 252.4 151.622 263.845 153.498C275.29 155.375 286.089 147.617 287.966 136.172Z" fill="white" stroke="#1A2E35" stroke-width="0.7" stroke-linecap="round" stroke-linejoin="round"/>
<path d="M279.32 134.84C279.16 135.07 279 135.31 278.83 135.54C275.68 139.9 270.83 143.96 267.25 144.77V144.71C263.75 143.93 259.07 140.06 255.92 135.83L255.42 135.14C252.42 130.8 251.12 126.24 254.48 124.36C261.33 120.54 267.25 128.73 267.25 128.73C267.25 128.73 273.17 120.6 280.01 124.42C283.32 126.27 282.14 130.64 279.32 134.84Z" fill="#C21735" stroke="#1A2E35" stroke-width="0.7" stroke-miterlimit="10"/>
<path d="M279.32 134.84C279.16 135.07 279 135.31 278.83 135.54H277.1L275.1 138.16L273.75 130.4L271.68 135.67H266.73L264.19 139.92L262.19 131.38L259.71 135.84H255.9L255.4 135.15H259.32L262.52 129.48L264.52 138.09L266.38 134.98H271.24L274.02 127.84L275.51 136.46L276.73 134.85L279.32 134.84Z" fill="white"/>
<path d="M247.03 91.56C258.628 91.56 268.03 82.158 268.03 70.56C268.03 58.962 258.628 49.56 247.03 49.56C235.432 49.56 226.03 58.962 226.03 70.56C226.03 82.158 235.432 91.56 247.03 91.56Z" fill="white" stroke="#1A2E35" stroke-width="0.7" stroke-linecap="round" stroke-linejoin="round"/>
<path d="M245.45 60.84C245.65 61.29 244.39 62.3 242.64 63.09C240.89 63.88 239.29 64.14 239.08 63.69C238.87 63.24 240.14 62.23 241.9 61.44C243.66 60.65 245.25 60.39 245.45 60.84Z" fill="white" stroke="#1A2E35" stroke-width="0.7" stroke-linecap="round" stroke-linejoin="round"/>
<path d="M254.9 80.32L248.62 83.37L242.99 71.76L239.09 63.74L245.37 60.69L249.17 68.52L254.9 80.32Z" fill="white" stroke="#1A2E35" stroke-width="0.7" stroke-linecap="round" stroke-linejoin="round"/>
<path d="M240.26 66.14L242.99 64.87L240.26 66.14Z" fill="#187DF3"/>
<path d="M240.26 66.14L242.99 64.87" stroke="#1A2E35" stroke-width="0.7" stroke-linecap="round" stroke-linejoin="round"/>
<path d="M241.44 68.66L244.17 67.4L241.44 68.66Z" fill="#187DF3"/>
<path d="M241.44 68.66L244.17 67.4" stroke="#1A2E35" stroke-width="0.7" stroke-linecap="round" stroke-linejoin="round"/>
<path d="M251.03 82.2L254.26 86.46L252.65 81.41L251.03 82.2Z" fill="white" stroke="#1A2E35" stroke-width="0.7" stroke-linecap="round" stroke-linejoin="round"/>
<path d="M254.9 80.33C253.43 81.8025 251.553 82.8019 249.51 83.2L248.62 83.37L242.99 71.76L249.17 68.52L254.9 80.33Z" fill="#187DF3" stroke="#1A2E35" stroke-width="0.7" stroke-miterlimit="10"/>
<path d="M244.17 73.97L246.73 72.78" stroke="#1A2E35" stroke-width="0.7" stroke-linecap="round" stroke-linejoin="round"/>
<path d="M245.58 76.67L248.1 75.51L245.58 76.67Z" fill="#187DF3"/>
<path d="M245.58 76.67L248.1 75.51" stroke="#1A2E35" stroke-width="0.7" stroke-linecap="round" stroke-linejoin="round"/>
<path d="M241.27 62.68L239.28 58.21L240.84 57.33L242.99 61.85L241.27 62.68Z" fill="white" stroke="#1A2E35" stroke-width="0.7" stroke-linecap="round" stroke-linejoin="round"/>
<path d="M244.68 56.84L244.21 55.78L235.84 59.53L236.31 60.58C236.51 61.02 238.54 60.58 240.85 59.5C243.16 58.42 244.87 57.23 244.68 56.84Z" fill="white" stroke="#1A2E35" stroke-width="0.7" stroke-linecap="round" stroke-linejoin="round"/>
<path d="M244.21 55.73C244.01 55.3 241.98 55.78 239.67 56.81C237.36 57.84 235.67 59.04 235.84 59.48C236.01 59.92 238.07 59.48 240.38 58.4C242.69 57.32 244.4 56.17 244.21 55.73Z" fill="white" stroke="#1A2E35" stroke-width="0.7" stroke-linecap="round" stroke-linejoin="round"/>
</g>
<defs>
<clipPath id="clip0_902_488">
<rect width="306.53" height="304.94" fill="white"/>
</clipPath>
</defs>
</svg>
